<svg width="108" height="88" viewBox="0 0 108 88" fill="none" xmlns="http://www.w3.org/2000/svg">
<path d="M37.6632 5.04617C41.7079 1.61132 47.1915 0.40341 52.305 1.82096L62.2262 4.57129C64.1551 5.10602 66.1632 5.29612 68.1582 5.13285L77.3532 4.38034C83.9628 3.8394 90.2218 7.42905 93.0926 13.4072L94.193 15.6986C95.4534 18.3233 97.3664 20.5805 99.7489 22.2543L100.239 22.5985C107.03 27.3695 109.05 36.5389 104.892 43.7218L104.592 44.2401C103.133 46.7599 102.346 49.612 102.305 52.5234L102.269 55.0651C102.175 61.6961 98.004 67.5834 91.7788 69.8696L83.1187 73.0501C81.2398 73.7402 79.4973 74.7564 77.9716 76.0521L70.1242 82.7165C66.0796 86.1513 60.596 87.3592 55.4825 85.9417L45.5613 83.1913C43.6324 82.6566 41.6242 82.4665 39.6292 82.6298L30.4343 83.3823C23.8247 83.9232 17.5657 80.3336 14.6949 74.3554L13.5945 72.064C12.334 69.4393 10.421 67.1821 8.03856 65.5083L7.54854 65.1641C0.757314 60.3931 -1.26249 51.2237 2.89561 44.0408L3.19563 43.5225C4.65436 41.0027 5.44191 38.1506 5.48288 35.2392L5.51866 32.6975C5.612 26.0665 9.78349 20.1792 16.0087 17.893L24.6687 14.7125C26.5477 14.0224 28.2901 13.0062 29.8158 11.7105L37.6632 5.04617Z" fill="#B3B6B7" stroke="black"/>
</svg>
