<svg width="109" height="86" viewBox="0 0 109 86" fill="none" xmlns="http://www.w3.org/2000/svg">
<path d="M67.3688 4.29818C64.9087 2.42047 61.7455 1.7237 58.7241 2.39397L57.8026 2.5984C55.5327 3.10196 53.1635 2.90565 51.0075 2.03537L49.6952 1.50568C46.8329 0.350301 43.5974 0.581359 40.9282 2.13177C38.8256 3.3531 36.3776 3.84343 33.9669 3.52611L32.1878 3.29195C29.489 2.93671 26.8002 4.01464 25.0942 6.13583C23.6735 7.90211 21.626 9.05191 19.3784 9.34553L17.5352 9.58631C15.0525 9.91063 13.0137 11.7065 12.3788 14.1285C11.8303 16.2205 10.3649 17.9522 8.39247 18.8393L7.39729 19.2869C5.0835 20.3275 3.76693 22.8018 4.1966 25.3022C4.564 27.4401 3.83437 29.6351 2.27971 31.142C0.371062 32.9921 -0.0207702 35.9398 1.36227 38.2017L1.60302 38.5954C2.72542 40.431 2.90105 42.693 2.07545 44.6799C1.12159 46.9753 1.75939 49.6241 3.65361 51.2338L4.85264 52.2527C6.53094 53.6789 7.53387 55.7438 7.61725 57.9447C7.71515 60.5292 9.25831 62.8389 11.6085 63.9187L13.3616 64.7241C15.4941 65.7038 17.2086 67.4103 18.1983 69.5382C19.4192 72.1632 21.8423 74.0289 24.6922 74.5382L26.3091 74.8271C28.6778 75.2504 30.854 76.406 32.5314 78.1312L32.8044 78.412C34.9873 80.6571 38.0583 81.8108 41.1794 81.5583L42.3875 81.4606C44.6781 81.2752 46.9718 81.7804 48.9725 82.9111L50.0277 83.5073C52.7539 85.0479 56.0254 85.2913 58.9496 84.1711L59.3153 84.031C61.5623 83.1702 64.0227 83.036 66.35 83.6471L67.9386 84.0643C70.7387 84.7996 73.7215 84.1247 75.9324 82.2556C77.7246 80.7404 79.9973 79.9123 82.3441 79.9192L84.2734 79.9249C86.8597 79.9326 89.2305 78.485 90.4053 76.1808C91.4056 74.2187 93.1834 72.7663 95.3056 72.1772L96.8217 71.7564C99.217 71.0916 100.909 68.9559 101.008 66.4721C101.093 64.3223 102.203 62.3434 103.993 61.1493L104.377 60.8932C106.582 59.4218 107.465 56.5822 106.51 54.1014C105.733 52.0808 105.993 49.7824 107.225 47.9966C108.665 45.9082 108.51 43.1097 106.847 41.1932L106.132 40.369C104.715 38.7352 104.113 36.5481 104.494 34.4192C104.936 31.9547 103.84 29.4684 101.724 28.1309L100.152 27.138C98.236 25.9272 96.8611 24.0235 96.3141 21.8238C95.6571 19.1821 93.6701 17.0742 91.0718 16.2626L89.359 15.7276C87.038 15.0026 85.0226 13.5292 83.6278 11.5374C81.8571 9.00903 79.0182 7.43992 75.9353 7.28572L74.5219 7.21502C72.1998 7.09886 69.9673 6.28155 68.1191 4.87087L67.3688 4.29818Z" fill="#FFF4D6" stroke="black"/>
</svg>
