<svg width="117" height="92" viewBox="0 0 117 92" fill="none" xmlns="http://www.w3.org/2000/svg">
<path d="M56.7752 10.8388L63.0827 1.61883L67.3635 10.4991L67.6524 11.0984L68.1477 10.6543L77.0027 2.71503L78.1655 12.3074L78.256 13.0538L78.9093 12.6818L89.6963 6.53822L87.7348 16.2295L87.5636 17.0751L88.3824 16.8032L100.373 12.8221L95.4607 22.0346L95.0044 22.8905L95.9662 22.7657L108.389 21.1543L100.843 29.359L100.137 30.1263L101.177 30.1964L113.273 31.0116L103.534 37.7333L102.663 38.3344L103.68 38.6255L114.739 41.7908L103.364 46.6209L102.432 47.0165L103.312 47.516L112.694 52.8385L100.347 55.4557L99.4486 55.6462L100.097 56.2975L107.244 63.4804L94.6811 63.6791L93.8754 63.6919L94.2446 64.4081L98.7001 73.053L86.7284 70.7753L86.0366 70.6436L86.1404 71.3402L87.5712 80.9416L76.9956 76.3037L76.4126 76.048L76.3023 76.675L74.5523 86.6253L66.0975 79.9274L65.6168 79.5466L65.3406 80.0941L60.4825 89.7245L54.7137 81.4305L54.3502 80.9079L53.9286 81.3848L46.2804 90.0369L43.5447 80.7229L43.3462 80.0473L42.7737 80.4574L32.867 87.5544L33.2779 77.8376L33.312 77.0325L32.5755 77.3595L21.0916 82.4577L24.5596 72.9365L24.8741 72.0732L23.9784 72.2779L11.6751 75.0904L17.9519 66.3188L18.5409 65.4956L17.5292 65.5281L5.17724 65.9245L13.8827 58.4057L14.6835 57.714L13.6407 57.5345L1.97835 55.5271L12.6125 49.7049L13.5268 49.2043L12.5641 48.8046L2.26893 44.5299L14.219 40.7726L15.1443 40.4817L14.3706 39.8968L6.04233 33.6007L18.5957 32.1755L19.4529 32.0782L18.9424 31.3828L13.0905 23.4126L25.4604 24.4552L26.2096 24.5184L25.9781 23.803L23.0029 14.6098L34.3741 18.0938L35.0102 18.2887L35.0205 17.6235L35.174 7.76642L44.7715 13.4829L45.3034 13.7997L45.5012 13.213L48.8299 3.33798L55.9997 10.9005L56.4257 11.3498L56.7752 10.8388Z" fill="black" stroke="black"/>
</svg>
